<?xml version="1.0" encoding="utf-8" ?>
<svg xmlns="http://www.w3.org/2000/svg" xmlns:xlink="http://www.w3.org/1999/xlink" width="1259" height="1007">
	<path fill="#00101C" transform="matrix(0.983594 0 0 0.983398 0 1.52588e-05)" d="M943.396 320.253Q943.829 319.2 944.33 318.178C946.447 313.924 950.438 310.584 954.958 309.149C962.115 306.877 967.969 309.306 974.24 312.644L979.298 309.127C980.77 309.655 982.303 310.181 983.66 310.97C985.674 312.14 987.537 313.925 988.071 316.273C989.095 320.772 986.275 324.711 984.018 328.3C984.736 330.567 985.451 333.013 985.787 335.37C986.403 339.69 984.59 349.983 981.848 353.437C979.679 356.168 971.346 355.458 967.936 355.811C968.396 386.447 995.861 387.89 996.778 403.194C997.002 406.924 994.772 409.195 992.482 411.782C992.199 419.132 991.914 426.434 992.226 433.786C1003.64 451.319 1016.61 467.892 1027.61 485.693C1029.56 488.851 1032.05 492.47 1031.12 496.306C1031.3 496.892 1031.33 496.903 1031.43 497.598C1031.84 500.379 1030.48 502.532 1028.79 504.574C1028.36 500.801 1024.82 497.303 1023.18 493.871C1020.02 487.241 1019.06 479.736 1015.08 473.409C1008.11 462.34 997.931 454.444 992.021 442.538C995.017 493.416 988.717 580.348 974.808 629.169C972.329 637.869 969.839 648.74 964.7 656.257C955.921 669.099 914.601 691.42 899.185 699.988C921.782 668.097 939.792 634.673 953.016 597.83C955.448 591.056 958.673 583.478 960.021 576.429C957.245 581.8 955.971 587.701 953.943 593.363C950.58 602.755 946.51 612.517 942.42 621.622C932.798 643.043 910.299 686.646 893.672 701.837C890.354 704.868 886.572 706.89 882.369 708.444C856.653 717.953 824.538 721.806 799.098 710.049C830.678 701.266 853.705 686.362 876.212 662.474C880.148 658.297 906.772 627.6 906.64 623.274C899.229 632.641 892.461 642.297 884.591 651.337C862.404 676.821 831.034 702.664 796.864 708.495C784.808 694.641 773.079 679.979 761.768 665.51C758.627 661.493 754.243 657.674 752.091 653.047L752.353 652.362L754.916 653.058C756.533 653.488 758.754 654.394 760.411 654.091C753.068 650.201 746.14 646.261 739.524 641.203C754.069 643.515 770.143 641.422 784.418 638.231C836.799 626.523 889.595 594.393 923.127 552.327Q928.974 545.034 933.978 537.138C938.01 530.72 946.14 512.493 951.249 508.867C952.83 508.862 954.072 508.917 955.528 508.188C958.414 503.338 958.404 487.159 958.17 481.047C958.034 477.476 957.794 469.79 955.085 467.312L951.838 469.34C951.944 470.307 952.013 470.462 952.865 470.994C954.081 471.754 954.958 472.13 956.046 473.101C958.709 482.603 956.742 497.862 954.647 507.461C949.052 508.238 921.546 508.802 917.368 506.614C916.187 505.996 915.909 505.194 915.546 503.993C914.11 499.236 914.469 476.148 916.813 471.913C916.917 471.724 917.041 471.547 917.146 471.359C917.274 471.131 917.389 470.896 917.511 470.664C917.527 460.507 917.759 451 919.497 440.976C920.965 450.293 920.839 459.492 920.542 468.887L926.955 469.456C929.393 462.606 931.553 455.704 933.642 448.74C928.365 445.404 907.25 437.479 906.109 431.704C905.415 428.188 937.329 377.149 942.22 371.068C943.348 369.665 944.336 368.449 946.268 368.403C949.237 368.332 952.342 371.082 954.33 373.071C958.075 376.818 964.126 384.812 964.036 390.35C964.002 392.471 963.057 394.428 963.062 396.648L964.018 396.839C964.164 396.716 964.329 396.612 964.455 396.469C966.276 394.39 966.097 389.21 965.668 386.549C964.166 377.242 956.272 369.982 949.002 364.771L939.981 365.77C935.158 362.434 927.846 361.839 924.875 356.213C923.502 353.611 923.364 349.891 924.418 347.152C926.189 342.549 931.061 342.974 934.744 340.941C940.651 337.68 934.136 331.331 935.267 327.08C936.171 323.68 940.55 321.719 943.396 320.253ZM960.283 460.41C964.699 453.573 968.431 446.717 971.752 439.281C968.543 429.939 953.421 399.491 947.606 394.372C944.861 410.532 942.076 426.395 938.666 442.447C943.108 446.032 947.533 449.839 952.336 452.931C953.749 453.84 959.33 456.152 959.979 457.13C960.241 457.524 960.203 458.048 960.316 458.508L959.587 460.971L960.283 460.41ZM918.965 428.393C921.503 430.093 924.073 431.762 926.569 433.522L935.847 440.455C937.894 431.262 944.23 407.581 944.2 399.24L943.694 398.701Q931.187 413.428 918.965 428.393ZM931.861 469.563C938.14 470.286 944.648 470.197 950.963 470.016C951.435 466.118 954.048 462.668 956.202 459.487C949.801 456.769 943.545 453.837 937.298 450.783C935.406 457.019 933.44 463.239 931.861 469.563Z"/>
	<path fill="#00191C" transform="matrix(0.983594 0 0 0.983398 0 1.52588e-05)" d="M760.411 654.091C769.838 655.746 771.692 657.809 782.878 657.83C819.765 657.899 861.09 627.823 887.003 603.92C894.306 597.183 900.699 589.596 907.741 582.607C903.336 589.661 896.73 595.823 890.839 601.628C866.344 625.763 834.566 650.62 800.334 658.471C785.372 661.902 768.278 661.428 754.916 653.058C756.533 653.488 758.754 654.394 760.411 654.091Z"/>
	<path fill="#00101C" transform="matrix(0.983594 0 0 0.983398 0 1.52588e-05)" d="M450.299 434.556C455.727 434.283 459.913 434.601 464.926 436.869C467.3 437.943 470.191 439.754 471.002 442.403C471.581 444.295 470.996 445.876 470.171 447.572C466.198 449.84 459.934 448.706 455.436 450.132C444.115 453.723 428.032 489.718 422.309 500.843C427.976 495.085 431.763 493.727 439.619 493.204C440.067 491.748 440.52 490.29 441.055 488.863C443.078 483.468 447.147 478.298 452.528 475.995Q453.194 475.711 453.885 475.495Q454.576 475.279 455.284 475.132Q455.993 474.985 456.713 474.909Q457.433 474.833 458.157 474.829Q458.881 474.825 459.602 474.892Q460.322 474.96 461.033 475.099Q461.743 475.237 462.437 475.446Q463.13 475.654 463.799 475.93C468.678 477.921 472.125 482.225 473.988 487.042C478.87 499.666 474.132 513.62 468.95 525.327C472.219 523.444 475.356 521.387 478.503 519.309C483.279 505.53 490.016 490.094 502.625 481.77C507.06 478.843 513.146 476.503 518.51 477.767C521.451 478.46 523.547 480.309 525.067 482.864C526.124 484.643 527.006 486.575 526.46 488.603C522.796 490.089 518.579 488.765 514.898 489.982C505.831 492.979 499.482 506.932 495.744 515.02C493.062 520.823 486.65 537.692 488.785 543.481C489.903 544.208 490.062 544.428 491.441 544.172C501.164 542.365 511.151 523.609 515.104 515.122C517.262 510.491 519.072 504.457 522.072 500.395C522.812 499.393 524.082 498.857 525.284 498.691C527.764 498.35 530.743 499.087 532.679 500.709C535.136 502.769 536.221 506.529 536.502 509.599C538.081 526.877 523.386 551.269 512.412 564.37C519.831 567.562 530.889 571.37 534.982 578.84C535.941 580.592 535.947 581.679 535.366 583.504C534.842 583.906 534.356 584.302 533.72 584.516C525.359 587.332 510.608 577.016 503.549 573.029C493.596 579.446 482.101 585.626 469.833 582.917C465.552 581.971 461.4 579.678 459.095 575.835C457.412 573.03 456.887 569.688 457.763 566.526C458.698 563.153 461.187 560.495 464.176 558.783C475.097 552.526 489.178 556.078 500.492 559.107C508.775 548.037 514.491 536.738 518.652 523.551C513.318 532.027 508.102 541.001 500.505 547.682C496.739 550.995 491.68 554.572 486.419 554.026C483.151 553.688 480.139 551.726 478.188 549.122C473.877 543.373 475.322 535.189 476.226 528.596C471.955 530.374 467.799 531.755 463.296 532.826C460.627 539.087 455.574 544.972 450.088 548.955C445.135 552.549 439.077 555.064 432.861 553.871C426.474 552.646 422.621 548.444 419.259 543.276C413.803 531.626 415.189 519.877 418.242 507.802C408.69 526.125 388.35 566.76 370.749 576.393C367.6 578.116 364.091 578.938 360.597 577.819C355.947 576.331 353.49 572.569 351.319 568.515C352.572 559.268 355.307 550.219 357.052 541.047C361.161 519.453 367.591 477.222 356.129 457.472C353.456 452.866 349.485 449.211 344.175 447.97C334.856 445.791 324.09 450.727 316.307 455.41C298.972 465.839 278.104 486.73 273.249 506.718C270.709 517.174 273.262 527.595 282.16 534.182C285.489 536.647 290.258 539.019 292.428 542.631C292.086 544.032 292.075 544.201 290.732 544.954C287.959 546.509 283.873 545.69 280.924 544.97C271.279 542.616 262.195 537.597 257.065 528.819C252.925 521.735 252.964 513.076 255.001 505.342C261.298 481.441 283.356 462.923 303.974 450.89C318.147 442.619 337.1 434.283 353.685 438.793C361.82 441.005 368 446.264 372.148 453.53C388.234 481.71 376.993 529.374 369.04 558.706C386.765 536.712 400.919 511.711 413.197 486.32C419.226 473.852 423.936 459.265 432.245 448.136C437.075 441.666 442.876 437.568 450.299 434.556ZM460.641 524.721C465.504 514.852 471.681 501.628 468.22 490.412C467.324 487.509 465.494 485.26 462.8 483.842C461.273 483.039 459.549 482.683 457.833 482.689C452.631 487.129 450.658 492.209 450.088 498.928C449.472 506.178 450.639 516.884 455.742 522.516C456.692 523.566 457.768 524.17 459.039 524.751L460.641 524.721ZM449.17 540.171C451.641 537.529 454.195 534.927 456.481 532.124C449.197 528.346 443.414 524.434 440.789 516.263C439.904 513.508 439.115 507.532 437.314 505.587C434.649 515.973 431.264 530.716 436.717 540.751C437.459 542.115 438.566 543.312 440.123 543.684C442.848 544.336 445.603 542.746 447.753 541.259C448.243 540.92 448.708 540.546 449.17 540.171ZM482.498 573.4C486.036 571.562 489.199 569.445 492.433 567.117C485.855 564.951 479.39 562.427 472.347 562.822C469.284 563.721 466.484 564.76 464.75 567.585C464.655 569.252 464.606 570.059 465.77 571.365C467.915 573.773 472.11 574.77 475.202 574.7Q477.064 574.649 478.898 574.322Q480.733 573.995 482.498 573.4Z"/>
	<path fill="#00101C" transform="matrix(0.983594 0 0 0.983398 0 1.52588e-05)" d="M666.67 434.598Q667.716 434.474 668.768 434.436Q669.821 434.397 670.873 434.445Q671.925 434.492 672.97 434.625Q674.014 434.757 675.045 434.974Q676.076 435.191 677.085 435.491Q678.095 435.791 679.077 436.172Q680.058 436.553 681.006 437.012Q681.954 437.472 682.861 438.007C708.947 453.594 697.718 497.288 693.267 521.175C691.304 531.706 689.531 542.244 688.866 552.947C688.561 557.852 687.972 563.466 689.356 568.232C689.964 570.323 690.685 571.302 692.544 572.396C693.772 572.574 694.713 572.653 695.911 572.253C708.728 567.968 730.183 536.446 736.504 524.093C743.454 510.51 751.163 487.018 747.82 471.926C746.26 464.886 743.074 458.581 740.921 451.757C740.349 449.942 739.813 448.139 740.722 446.403C742.713 446.169 744.065 446.511 745.906 447.305C753.451 450.557 759.54 456.513 762.615 464.142C769.847 482.082 762.64 501.691 755.611 518.459C747.218 539.303 728.105 566.189 709.634 579.083C702.973 583.732 693.958 588.365 685.567 586.618C647.739 578.738 696.926 473.89 678.381 447.245C676.694 444.822 674.293 443.29 671.365 442.843C666.902 442.161 662.14 443.913 658.174 445.839C637.662 455.8 636.918 472.278 631.718 475.836C630.318 475.994 629.708 476.165 628.406 475.481C626.649 474.556 625.35 472.332 624.932 470.439C623.851 465.544 625.531 458.904 628.316 454.752C636.664 442.31 652.847 437.506 666.67 434.598Z"/>
	<path fill="#00101C" transform="matrix(0.983594 0 0 0.983398 0 1.52588e-05)" d="M823.857 440.601C825.451 440.924 827.083 441.238 828.623 441.767C831.558 442.777 834.816 444.503 836.094 447.507C837.055 449.767 836.089 453.18 835.375 455.46C833.503 461.438 830.342 467.324 827.779 473.06Q822.067 485.688 817.294 498.699C822.784 491.67 830.149 480.614 838.751 477.45C841.483 476.444 844.416 476.483 847.061 477.732C851.95 480.04 855.353 486.241 857.008 491.203C860.435 501.477 857.344 512.377 852.617 521.706C845.165 536.411 831.698 548.941 815.925 554.064C807.313 550.955 801.345 546.696 794.575 540.665C790.95 546.612 787.049 551.503 780.693 554.575C777.494 552.963 774.532 551.249 771.563 549.244C768.392 546.674 765.731 543.4 764.269 539.564C758.033 523.203 772.988 494.578 779.764 479.16C783.379 480.774 787.47 482.742 790.18 485.705C791.356 486.992 792.448 488.827 792.256 490.615C791.922 493.711 789.702 497.412 788.352 500.254C783.556 510.349 773.009 528.151 773.358 539.435C773.42 541.441 774.04 542.3 775.436 543.666C776.775 544.113 777.704 544.379 779.076 543.873C791.912 539.143 802.883 492.377 807.893 478.917C812.712 465.969 818.412 453.296 823.857 440.601ZM811.061 542.714C826.853 532.756 838.209 519.926 842.45 501.371C843.415 497.148 844.619 492.549 843.339 488.286C842.459 487.163 841.98 486.792 840.632 486.317C829.032 494.22 813.044 510.283 810.28 524.444C809.558 528.142 807.629 539.325 809.448 542.436C809.547 542.605 809.694 542.743 809.816 542.896L811.061 542.714Z"/>
	<path fill="#00101C" transform="matrix(0.983594 0 0 0.983398 0 1.52588e-05)" d="M642.327 475.167C646.282 475.331 649.787 476.46 653.155 478.519Q653.714 478.857 654.236 479.251Q654.757 479.645 655.235 480.09Q655.713 480.536 656.142 481.028Q656.572 481.52 656.949 482.054Q657.325 482.588 657.645 483.158Q657.965 483.728 658.224 484.328Q658.484 484.927 658.68 485.551Q658.876 486.174 659.007 486.814C660.307 493.101 658.223 499.573 654.718 504.78C646.538 516.931 634.764 521.491 621.028 524.166C620.111 528.399 618.315 534.244 619.974 538.438C620.902 540.785 622.827 542.377 625.164 543.225C638.189 547.951 652.628 530.638 658.301 521.102C660.393 517.586 661.53 513.667 663.538 510.157C664.18 509.033 665.096 507.746 666.352 507.267C667.293 506.907 667.384 507.184 668.244 507.558C668.553 508.169 668.877 508.762 669 509.446C669.945 514.749 663.24 524.301 660.345 528.719C653.349 539.394 643.476 550.31 630.385 552.921C623.73 554.249 616.117 553.032 610.517 549.054C605.25 545.313 604.403 539.546 603.525 533.631C600.252 539.238 596.926 544.558 591.816 548.693C588.306 551.532 583.73 554.07 579.069 553.395C576.786 553.065 574.826 551.919 573.538 549.988C569.894 544.521 572.264 535.687 573.561 529.801L571.908 531.935C565.869 539.688 556.296 552.767 545.735 553.725C542.859 553.986 539.84 553.069 537.659 551.155C534.962 548.787 534.924 545.248 534.865 541.948C537.297 528.683 542.564 518.761 546.064 506.558C548.19 499.146 548.396 491.139 550.734 483.768C551.395 481.685 552.237 480.161 553.839 478.665C555.454 478.147 556.103 478.016 557.684 478.74C580.559 489.217 546.308 532.429 549.702 542.678L550.526 543.06C559.634 541.1 581.482 508.341 584.921 498.708C586.717 493.676 586.669 481.922 590.848 478.687C592.049 477.757 592.513 477.992 593.941 478.133C597.347 480.238 599.313 483.781 600.778 487.415C605.828 499.945 594.161 516.433 589.314 527.666C587.857 531.042 584.851 538.445 586.282 542.013C587.067 542.308 587.253 542.535 588.11 542.296C596.828 539.869 609.916 507.257 614.912 498.292C620.855 487.628 630.47 478.597 642.327 475.167ZM628.965 517.314C636.289 512.783 647.442 504.283 649.477 495.339C649.907 493.45 649.429 492.424 648.374 490.892C646.774 490.017 645.62 489.673 643.816 489.446C636.169 494.989 625.894 507.067 624.121 516.505L624.536 518.082C626.184 518.667 627.367 517.993 628.965 517.314Z"/>
	<path fill="#00101C" transform="matrix(0.983594 0 0 0.983398 0 1.52588e-05)" d="M995.099 519.334C998.417 521.204 999.886 537.71 1000.55 542.141C1002.18 552.929 1004.38 564.479 1004.31 575.385C1004.25 585.101 1002.6 594.63 1003.14 604.399C1004.43 627.555 1012.27 665.585 1018.84 687.979C1020.91 695.031 1023.13 705.52 1030.06 709.24C1031.61 710.071 1033.77 711.002 1034.98 712.267C1035.82 713.15 1035.79 713.504 1035.81 714.639C1035.66 714.796 1035.51 714.962 1035.35 715.109C1031.83 718.24 1016.82 716.441 1012.25 716.262C1011.33 711.336 1010.25 706.606 1008.83 701.792C1006.99 696.23 1004.3 692.709 1000.04 688.781C1000.11 693.661 1001.16 710.814 998.615 714.176C996.176 709.951 996.306 687.863 995.925 681.37C998.369 677.795 1001.4 674.677 1004.31 671.493C999.029 654.323 986.414 621.013 986.38 604.538C986.349 589.708 989.919 574.293 991.446 559.506C992.803 546.374 992.55 532.216 995.099 519.334Z"/>
	<path fill="#00101C" transform="matrix(0.983594 0 0 0.983398 0 1.52588e-05)" d="M891.74 477.011C893.908 476.903 896.022 476.866 898.17 477.237C905.041 478.421 908.987 482.825 912.825 488.155Q912.256 490.226 911.499 492.236Q910.742 494.246 909.803 496.178Q908.864 498.109 907.752 499.947Q906.64 501.784 905.363 503.511C896.485 515.664 885.941 521.345 871.355 523.517C871.209 529.613 870.01 539.999 874.712 544.662C875.918 545.858 877.358 546.384 879.049 546.239C887.218 545.539 898.974 531.986 903.486 525.783C906.375 521.813 908.927 516.69 912.274 513.179C913.195 512.213 913.363 512.261 914.621 512.255C915.697 513.513 915.749 513.638 915.931 515.285C915.646 516.081 915.356 516.841 915.011 517.614C909.105 530.83 896.388 546.594 882.44 551.782C876.44 554.014 869.915 554.036 864.06 551.308C859.409 549.14 855.868 545.311 854.217 540.427C850.612 529.762 856.081 516.14 861.037 506.793C867.776 494.083 877.46 481.414 891.74 477.011ZM876.874 516.542C886.596 511.362 899.4 501.71 902.524 490.597C902.772 489.714 902.761 488.982 902.686 488.079L901.854 487.022C901.103 486.946 900.267 486.79 899.509 486.846C888.944 492.291 878.593 503.766 874.885 515.168L875.626 516.695L874.756 515.982L875.283 516.811L876.874 516.542Z"/>
	<path fill="#00101C" transform="matrix(0.983594 0 0 0.983398 0 1.52588e-05)" d="M786.22 464.505C787.641 464.43 789.088 464.343 790.509 464.465C793.529 464.725 796.806 466.222 798.641 468.705C799.593 469.992 799.994 471.48 799.717 473.062C799.178 476.142 796.9 478.013 794.555 479.815C792.907 480.057 791.31 480.271 789.652 479.977C786.968 479.5 784.212 478.007 782.675 475.702C781.567 474.04 781.12 472.121 781.528 470.152C782.105 467.368 784.018 466.061 786.22 464.505Z"/>
</svg>
